<svg id="eIox49Apd1C1" xmlns="http://www.w3.org/2000/svg" xmlns:xlink="http://www.w3.org/1999/xlink" viewBox="0 0 134 40" shape-rendering="geometricPrecision" text-rendering="geometricPrecision"><g transform="translate(.219294-1.682787)"><g transform="translate(-16.274549 7)"><path d="M38.063866,20.306944v-1.276855l8.223677-8.390762h-7.403588v-2.09769h11.80018v1.16285l-8.337579,8.390762h8.337579v2.211695Zm15.116986-4.902211v-2.348501h5.307803v2.348501Zm9.308018,4.902211v-11.765307h10.068879c1.761683,0,2.642511.760025,2.642511,2.280098v1.436462c0,1.155256-.675808,1.816478-2.027444,1.983686c1.412384.182408,2.118565.934833,2.118565,2.257297v1.504865c0,1.535274-1.154188,2.302899-3.4626,2.302899Zm8.929866-5.10742h-6.241794v2.986929h6.241794c.455607,0,.774528-.0532.956771-.159607.242991-.152008.364484-.448417.364484-.889239v-.889238c0-.440821-.121493-.737231-.364484-.889238-.182243-.106405-.501164-.159607-.956771-.159607Zm0-4.742605h-6.241794v2.804521h6.241794c.83528,0,1.252914-.281209,1.252914-.843636v-1.117248c0-.562427-.417634-.843637-1.252914-.843637Zm11.517704,7.63833h9.020986v-7.455922h-9.020986Zm-2.733632-6.771892c0-1.094453.20502-1.831677.615067-2.211696s1.176975-.570024,2.300807-.570024h8.656502c1.123832,0,1.89076.190006,2.300807.570024s.615068,1.117243.615068,2.211696v6.201867c0,1.094453-.205021,1.831677-.615068,2.211695s-1.176975.570025-2.300807.570025h-8.656502c-1.123832,0-1.89076-.190006-2.300807-.570025s-.615067-1.117242-.615067-2.211695Zm20.128642,8.983587v-11.765307h2.73363v9.553612h8.81597v2.211695Zm20.90318-9.667617v9.667617h-2.73363v-9.667617h-5.39893v-2.09769h13.55426v2.09769Z" fill="#fff" fill-rule="evenodd"/></g></g></svg>
