<?xml version="1.0" encoding="utf-8"?>
<svg width="15mm" height="15mm" version="1.1" style="shape-rendering:geometricPrecision; text-rendering:geometricPrecision; image-rendering:optimizeQuality; fill-rule:evenodd; clip-rule:evenodd" viewBox="-23.496 -62.098 1500 1500" xmlns="http://www.w3.org/2000/svg">
  <defs>
    <style type="text/css">
   
    .str0 {stroke:white;stroke-width:79.38;stroke-linejoin:round;stroke-miterlimit:22.9256}
    .fil0 {fill:white}
    .fil1 {fill:#FEFEFE;fill-rule:nonzero}
   
  </style>
  </defs>
  <g id="Layer_x0020_1" transform="matrix(1, 0, 0, 1, -33.566303, -68.811157)">
    <g id="_1971673124592">
      <path class="fil1" d="M870.51 1179.54l-262.36 0c-16.09,0 -29.18,13.1 -29.18,29.21 0,16.12 13.09,29.22 29.18,29.22l262.36 0c16.09,0 29.18,-13.1 29.18,-29.22 0,-16.11 -13.09,-29.21 -29.18,-29.21z" style="paint-order: fill; fill: rgb(255, 255, 255); stroke: rgb(0, 0, 0);"/>
      <path class="fil1" d="M870.51 1256.62l-262.36 0c-16.09,0 -29.18,13.1 -29.18,29.22 0,16.11 13.09,29.21 29.18,29.21l262.36 0c16.09,0 29.18,-13.1 29.18,-29.21 0,-16.12 -13.09,-29.22 -29.18,-29.22z" style="paint-order: fill; fill: rgb(255, 255, 255); stroke: rgb(0, 0, 0);"/>
      <path class="fil1" d="M870.51 1333.71l-262.36 0c-16.09,0 -29.18,13.1 -29.18,29.21 0,16.12 13.09,29.22 29.18,29.22l262.36 0c16.09,0 29.18,-13.1 29.18,-29.22 0,-16.11 -13.09,-29.21 -29.18,-29.21z" style="paint-order: fill; fill: rgb(255, 255, 255); stroke: rgb(0, 0, 0);"/>
      <path class="fil1" d="M812.05 1420.09l-145.43 0c-16.1,0 -29.19,13.1 -29.19,29.21 0,16.12 13.09,29.22 29.19,29.22l145.43 0c16.1,0 29.18,-13.1 29.18,-29.22 0,-16.11 -13.08,-29.21 -29.18,-29.21z" style="paint-order: fill; fill: rgb(255, 255, 255); stroke: rgb(0, 0, 0);"/>
      <path class="fil1" d="M977.13 479.9c-61.25,-62.16 -142.98,-97.09 -230.14,-98.33 -181.2,-2.7 -331.38,142.71 -334.78,324.05 -1.47,78.45 24.99,155.01 74.52,215.55 50.29,61.49 77.98,137.96 77.98,215.33l0 0.87c0,16.12 13.09,29.22 29.19,29.22 16.09,0 29.18,-13.1 29.18,-29.22l0 -0.87c0,-90.84 -32.39,-180.46 -91.2,-252.36 -40.75,-49.81 -62.53,-112.82 -61.31,-177.42 2.8,-149.2 126.44,-268.83 275.59,-266.72 71.73,1.03 138.99,29.78 189.42,80.95 50.47,51.21 78.27,119.05 78.27,191.01 0,62.06 -20.32,120.49 -58.77,168.97 -55.89,70.48 -86.66,158.13 -86.66,246.8l0 9.64c0,16.12 13.08,29.22 29.18,29.22 16.09,0 29.19,-13.1 29.19,-29.22l0 -9.64c0,-75.54 26.28,-150.28 74,-210.46 46.74,-58.92 71.44,-129.92 71.44,-205.31 0,-87.42 -33.78,-169.83 -95.1,-232.06z" style="paint-order: fill; fill: rgb(255, 255, 255); stroke: rgb(0, 0, 0);"/>
    </g>
  </g>
</svg>