<?xml version="1.0" encoding="UTF-8"?>
<!DOCTYPE svg PUBLIC "-//W3C//DTD SVG 1.1//EN" "http://www.w3.org/Graphics/SVG/1.1/DTD/svg11.dtd">
<!-- Creator: CorelDRAW 2020 (64-Bit) -->
<svg xmlns="http://www.w3.org/2000/svg" xml:space="preserve" width="64mm" height="64mm" version="1.1" style="shape-rendering:geometricPrecision; text-rendering:geometricPrecision; image-rendering:optimizeQuality; fill-rule:evenodd; clip-rule:evenodd"
viewBox="0 0 6400 6400"
 xmlns:xlink="http://www.w3.org/1999/xlink"
 xmlns:xodm="http://www.corel.com/coreldraw/odm/2003">
 <defs>
  <style type="text/css">
   <![CDATA[
    .fil0 {fill:white;fill-rule:nonzero}
   ]]>
  </style>
 </defs>
 <g id="Слой_x0020_1">
  <metadata id="CorelCorpID_0Corel-Layer"/>
  <g id="_1958424476704">
   <path class="fil0" d="M4905.39 4344.6l-1062.94 -1086.67 862.75 -882.01c280.12,66.5 586.22,-9.8 804.93,-233.36 239.34,-244.47 304.99,-596.03 204.47,-903.49l-406.19 415.04c-143.7,147.34 -380.9,142.75 -530.51,-10.2 -149,-152.55 -153.67,-395.05 -10.19,-542.13l405.98 -415.04c-300.11,-103.42 -643.82,-35.87 -883.55,209.03 -218.29,222.94 -292.66,535.83 -227.44,822.68l-862.75 881.79 -862.35 -881.61c65.04,-286.6 -9.97,-599.53 -228.05,-822.9 -239.13,-244.68 -582.8,-312.02 -883.55,-209.25l405.97 415.26c143.91,146.91 139.64,389.62 -10.19,542.35 -149.22,152.55 -385.99,157.1 -530.29,10.41l-406.01 -415.22c-100.74,307.03 -34.87,658.85 204.9,903.49 217.86,223.38 523.92,299.2 804.72,232.92l862.32 881.35 -1062.72 1086.45c-193.43,-13.69 -391.09,51.93 -538.38,203.39 -271.65,277.28 -271.65,727.05 0,1004.77 270.79,277.06 710.97,277.06 982.19,0 147.72,-151.02 211.69,-353.31 199.37,-551.05l1062.08 -1086.23 1062.94 1086.67c-13.18,197.74 51.22,400.03 198.94,550.84 271.01,277.49 711.39,277.49 982.61,0 271.22,-277.28 271.22,-727.05 0,-1004.55 -147.76,-150.99 -345.63,-216.61 -539.06,-202.73zm-3363.78 1065.62l-353.47 -96.47 -94.15 -361.36 258.25 -264.46 353.47 96.68 94.57 361.14 -258.68 264.46zm3669.84 -95.81l-353.25 96.25 -258.68 -264.45 94.36 -361.14 353.47 -96.68 258.9 264.45 -94.79 361.58z"/>
  </g>
  <g id="_1958424476080">
  </g>
  <g id="_1958424476032">
  </g>
  <g id="_1958424477184">
  </g>
  <g id="_1958424477520">
  </g>
  <g id="_1958424478432">
  </g>
  <g id="_1958424478192">
  </g>
  <g id="_1958424475936">
  </g>
  <g id="_1958424477136">
  </g>
  <g id="_1958424472864">
  </g>
  <g id="_1958424475312">
  </g>
  <g id="_1958424474688">
  </g>
  <g id="_1958424474448">
  </g>
  <g id="_1958424474112">
  </g>
  <g id="_1958424474016">
  </g>
  <g id="_1958424473056">
  </g>
 </g>
</svg>
