<?xml version="1.0" encoding="utf-8"?>
<svg width="15mm" height="15mm" version="1.1" style="shape-rendering:geometricPrecision; text-rendering:geometricPrecision; image-rendering:optimizeQuality; fill-rule:evenodd; clip-rule:evenodd" viewBox="0 0 1500 1500" xmlns="http://www.w3.org/2000/svg">
  <defs>
    <style type="text/css">
   
    .str0 {stroke:white;stroke-width:79.38;stroke-linejoin:round;stroke-miterlimit:22.9256}
    .str2 {stroke:white;stroke-width:63.5;stroke-linecap:round;stroke-linejoin:round;stroke-miterlimit:22.9256}
    .str1 {stroke:black;stroke-width:20;stroke-linecap:round;stroke-linejoin:round;stroke-miterlimit:22.9256}
    .fil2 {fill:none}
    .fil0 {fill:white}
    .fil1 {fill:#FEFEFE;fill-rule:nonzero}
   
  </style>
  </defs>
  <g id="Layer_x0020_1" transform="matrix(1, 0, 0, 1, 25.174965, -16.783251)">
    <circle class="fil0 str1" cx="746.47" cy="753.53" r="200"/>
    <g id="_1971700975248">
      <path class="fil2 str2" d="M888.82 486.88c-27.23,-35.67 -54.47,-71.34 -90.88,-104.21 -36.41,-32.86 -82,-62.92 -134.16,-86.77 -52.16,-23.84 -110.89,-41.47 -172.1,-48.69 -61.21,-7.2 -124.88,-4 -188.57,-0.79"/>
      <path class="fil2 str2" d="M532.95 524.13c-65.92,9.14 -131.85,18.29 -201.71,53.15 -69.87,34.87 -143.69,95.45 -192.59,155.23 -48.9,59.79 -72.9,118.79 -96.88,177.78"/>
      <path class="fil2 str2" d="M398.43 787.99c-30.19,75.03 -60.38,150.07 -64.04,232.36 -3.67,82.31 19.17,171.88 49.59,239.9 30.42,68.04 68.39,114.55 106.38,161.05"/>
      <path class="fil2 str2" d="M592.12 1080.04c51.98,54.58 103.95,109.16 174.28,148.15 70.34,38.98 159.02,62.38 238.26,68.93 79.25,6.55 149.05,-3.72 218.86,-14"/>
      <path class="fil2 str2" d="M910.74 1048.79c78.9,-11.18 157.82,-22.38 228.33,-54.93 70.51,-32.54 132.62,-86.45 181.66,-147.01 49.05,-60.56 85.05,-127.77 121.04,-194.98"/>
      <path class="fil2 str2" d="M1063.04 751.95c25.53,-64.76 51.05,-129.53 51.05,-210.75 0,-81.23 -25.52,-178.89 -61.31,-251.62 -35.8,-72.73 -81.86,-120.5 -127.92,-168.28"/>
    </g>
  </g>
</svg>